<svg width="0" height="0" class="hidden">
  <symbol fill="none" xmlns="http://www.w3.org/2000/svg" viewBox="0 0 14 18" id="play">
    <path d="M13.2923 10.3932L2.15764 17.7762C1.21269 18.4021 0 17.6442 0 16.3824V1.61647C0 0.356646 1.21094 -0.403248 2.15764 0.224664L13.2923 7.60763C13.5073 7.74786 13.686 7.95055 13.8103 8.19516C13.9345 8.43977 14 8.71759 14 9.00043C14 9.28328 13.9345 9.5611 13.8103 9.80571C13.686 10.0503 13.5073 10.253 13.2923 10.3932Z" fill="white"></path>
  </symbol>
  <symbol fill="none" xmlns="http://www.w3.org/2000/svg" viewBox="0 0 16 16" id="star">
    <g clip-path="url(#clip0_1_30)">
      <path d="M3.612 15.443C3.226 15.641 2.788 15.294 2.866 14.851L3.696 10.121L0.172996 6.76501C-0.156004 6.45101 0.0149962 5.87701 0.455996 5.81501L5.354 5.11901L7.538 0.792012C7.735 0.402012 8.268 0.402012 8.465 0.792012L10.649 5.11901L15.547 5.81501C15.988 5.87701 16.159 6.45101 15.83 6.76501L12.307 10.121L13.137 14.851C13.215 15.294 12.777 15.641 12.391 15.443L8 13.187L3.612 15.443Z" fill="#FFB800"></path>
    </g>
    <defs>
      <clipPath id="clip0_1_30">
        <rect width="16" height="16" fill="white"></rect>
      </clipPath>
    </defs>
  </symbol>
</svg>