<svg aria-hidden="true" style="position: absolute; width: 0; height: 0; overflow: hidden;" version="1.1" xmlns="http://www.w3.org/2000/svg" xmlns:xlink="http://www.w3.org/1999/xlink">
<defs>
<symbol id="icon-bottom-shape" viewBox="0 0 56 32">
<path stroke-linejoin="round" stroke-linecap="round" stroke-miterlimit="4" stroke-width="6" d="M3 4l25 25 25-25"></path>
</symbol>
<symbol id="icon-facebook" viewBox="0 0 32 32">
<path d="M0 16c0 8.837 7.163 16 16 16s16-7.163 16-16c0-8.837-7.163-16-16-16s-16 7.163-16 16zM16 8c4.4 0 8 3.6 8 8 0 4-2.9 7.4-6.9 8v-5.7h1.9l0.4-2.3h-2.2v-1.5c0-0.6 0.3-1.2 1.3-1.2h1v-2c0 0-0.9-0.2-1.8-0.2-1.8 0-3 1.1-3 3.1v1.8h-2v2.3h2v5.6c-3.8-0.6-6.7-3.9-6.7-7.9 0-4.4 3.6-8 8-8z"></path>
</symbol>
<symbol id="icon-instagram" viewBox="0 0 32 32">
<path d="M16 18.8c-1.5 0-2.8-1.2-2.8-2.8 0-1.5 1.2-2.8 2.8-2.8 1.5 0 2.8 1.2 2.8 2.8 0 1.5-1.3 2.8-2.8 2.8z"></path>
<path d="M19.4 9.2c0.676 0 1.067 0.143 1.352 0.248 0.052 0.019 0.101 0.037 0.148 0.052 0.083 0.042 0.163 0.079 0.238 0.115 0.287 0.136 0.524 0.248 0.762 0.485 0.3 0.3 0.5 0.6 0.6 1 0.1 0.3 0.2 0.7 0.3 1.5v6.8c0 0.676-0.143 1.067-0.247 1.352-0.019 0.052-0.037 0.101-0.052 0.148-0.042 0.084-0.079 0.163-0.115 0.238-0.136 0.287-0.248 0.524-0.485 0.762-0.3 0.3-0.6 0.5-1 0.6-0.3 0.1-0.7 0.2-1.5 0.3h-6.8c-0.676 0-1.067-0.143-1.352-0.247-0.052-0.019-0.101-0.037-0.148-0.052-0.084-0.042-0.163-0.079-0.238-0.115-0.287-0.136-0.524-0.248-0.762-0.485-0.3-0.3-0.5-0.6-0.6-1-0.1-0.3-0.2-0.7-0.3-1.5v-6.8c0-0.676 0.143-1.067 0.248-1.352 0.019-0.052 0.037-0.101 0.052-0.148 0.042-0.083 0.079-0.163 0.115-0.238 0.136-0.287 0.248-0.524 0.485-0.762 0.3-0.3 0.6-0.5 1-0.6 0.3-0.1 0.7-0.2 1.5-0.3h6.8zM16 11.7c-2.4 0-4.3 1.9-4.3 4.3s1.9 4.3 4.3 4.3c2.4 0 4.3-1.9 4.3-4.3s-1.9-4.3-4.3-4.3zM21.4 11.6c0-0.552-0.448-1-1-1s-1 0.448-1 1c0 0.552 0.448 1 1 1s1-0.448 1-1z"></path>
<path d="M0 16c0 8.837 7.163 16 16 16s16-7.163 16-16c0-8.837-7.163-16-16-16s-16 7.163-16 16zM12.6 7.7h6.8c0.9 0.1 1.5 0.2 2 0.4 0.6 0.3 1 0.5 1.5 1s0.8 1 1 1.5c0.2 0.5 0.4 1.1 0.4 2v6.8c-0.1 0.9-0.2 1.5-0.4 2-0.3 0.6-0.5 1-1 1.5s-1 0.8-1.5 1c-0.5 0.2-1.1 0.4-2 0.4h-6.8c-0.9-0.1-1.5-0.2-2-0.4-0.6-0.3-1-0.5-1.5-1s-0.8-1-1-1.5c-0.2-0.5-0.4-1.1-0.4-2v-6.8c0.1-0.9 0.2-1.5 0.4-2 0.3-0.6 0.5-1 1-1.5s1-0.8 1.5-1c0.5-0.2 1.1-0.4 2-0.4z"></path>
</symbol>
<symbol id="icon-linkedin" viewBox="0 0 32 32">
<path d="M0 16c0-8.837 7.163-16 16-16s16 7.163 16 16c0 8.837-7.163 16-16 16s-16-7.163-16-16zM8.2 13.3v10.7h3.4v-10.7h-3.4zM8 9.9c0 1.1 0.8 1.9 1.9 1.9s1.9-0.8 1.9-1.9c0-1.1-0.8-1.9-1.9-1.9-1 0-1.9 0.8-1.9 1.9zM20.6 24h3.2v-6.6c0-3.3-2-4.4-3.9-4.4-1.7 0-2.9 1.1-3.2 1.8v-1.5h-3.2v10.7h3.4v-5.7c0-1.5 1-2.3 2-2.3s1.7 0.5 1.7 2.2v5.8z"></path>
</symbol>
<symbol id="Location-Icon" viewBox="0 0 21 32">
<path d="M10.667 0.423c5.727 0 10.37 4.643 10.37 10.37 0 1.732-0.423 3.363-1.175 4.799l-9.196 15.942-8.983-15.555c-0.884-1.527-1.388-3.297-1.388-5.186 0-5.727 4.643-10.37 10.37-10.37zM10.667 3.386c-4.091 0-7.407 3.316-7.407 7.407 0 1.176 0.271 2.305 0.785 3.324l0.249 0.455 6.374 11.036 6.419-11.114c0.645-1.114 0.989-2.377 0.989-3.701 0-4.091-3.316-7.407-7.407-7.407zM10.667 6.349c2.455 0 4.444 1.99 4.444 4.444s-1.99 4.444-4.444 4.444c-2.455 0-4.444-1.99-4.444-4.444s1.99-4.444 4.444-4.444zM10.667 9.312c-0.818 0-1.482 0.663-1.482 1.482s0.663 1.482 1.482 1.482c0.818 0 1.481-0.663 1.481-1.482s-0.663-1.482-1.481-1.482z"></path>
</symbol>
<symbol id="long-shape" viewBox="0 0 168 32">
<path stroke-linejoin="round" stroke-linecap="round" stroke-miterlimit="4" stroke-width="2.5263" d="M161.684 15.579h-151.158M161.684 15.579l-13.474 13.895M161.684 15.579l-13.474-13.895"></path>
</symbol>
<symbol id="mail" viewBox="0 0 39 32">
<path stroke-linejoin="round" stroke-linecap="round" stroke-miterlimit="4" stroke-width="4.2667" d="M2.786 3.083c0.349-0.349 0.83-0.564 1.362-0.564h30.815c0.532 0 1.013 0.216 1.362 0.564M2.786 3.083c-0.349 0.349-0.564 0.83-0.564 1.362v23.111c0 1.064 0.862 1.926 1.926 1.926h30.815c1.064 0 1.926-0.862 1.926-1.926v-23.111c0-0.532-0.216-1.013-0.564-1.362M2.786 3.083l14.046 14.046c1.504 1.504 3.943 1.504 5.447 0l14.046-14.046"></path>
</symbol>
<symbol id="phone-call" viewBox="0 0 32 32">
<path stroke-linejoin="round" stroke-linecap="round" stroke-miterlimit="4" stroke-width="3.7647" d="M19.856 7.516c1.137 0.222 2.266 0.723 3.085 1.542s1.321 1.948 1.542 3.085M20.627 2.118c2.362 0.262 4.488 1.405 6.17 3.085s2.82 3.808 3.085 6.17M29.882 22.905v4.18c0.006 1.598-1.43 2.932-3.043 2.787-13.923 0.011-24.72-10.887-24.71-24.716-0.145-1.605 1.182-3.036 2.778-3.037h4.188c0.678-0.007 1.334 0.233 1.848 0.674 1.46 1.253 2.4 5.508 2.038 7.199-0.282 1.321-1.613 2.244-2.518 3.148 1.987 3.488 4.881 6.376 8.376 8.36 0.905-0.903 1.831-2.232 3.154-2.513 1.697-0.361 5.979 0.579 7.228 2.050 0.443 0.521 0.678 1.187 0.661 1.87z"></path>
</symbol>
<symbol id="icon-pinterest" viewBox="0 0 32 32">
<path d="M0 16c0 8.837 7.163 16 16 16s16-7.163 16-16c0-8.837-7.163-16-16-16s-16 7.163-16 16zM8 16c0-4.4 3.6-8 8-8s8 3.6 7.9 7.6c0 4.4-3.6 8-8 8-0.8 0-1.6-0.1-2.3-0.3 0.3-0.5 0.6-1.1 0.8-1.7 0.1-0.4 0.6-2.2 0.6-2.2 0.3 0.5 1.1 1 2 1 2.6 0 4.3-2.4 4.3-5.5 0-2.4-2-4.6-5.1-4.6-3.8 0-5.7 2.7-5.7 5 0 1.4 0.5 2.6 1.6 3.1 0.2 0.1 0.3 0 0.4-0.2 0.1-0.1 0.2-0.5 0.2-0.6 0.071-0.141 0.041-0.183-0.017-0.266-0.024-0.034-0.053-0.076-0.083-0.134-0.3-0.4-0.5-0.9-0.5-1.6 0-2 1.5-3.8 3.9-3.8 2.1 0 3.3 1.3 3.3 3.1 0 2.4-1 4.3-2.5 4.3-0.9 0-1.5-0.7-1.3-1.5 0.084-0.417 0.219-0.852 0.349-1.268 0.181-0.58 0.351-1.124 0.351-1.532 0-0.7-0.4-1.2-1.1-1.2-0.8 0-1.5 0.9-1.5 2.1 0 0.8 0.3 1.3 0.3 1.3s-0.8 3.7-1 4.4c-0.1 0.6-0.1 1.2-0.1 1.8-2.8-1.2-4.8-4-4.8-7.3z"></path>
</symbol>
<symbol id="icon-shape" viewBox="0 0 38 32">
<path stroke-linejoin="round" stroke-linecap="round" stroke-miterlimit="4" stroke-width="2.0870" d="M33.275 13.217h-28.985M33.275 13.217l-11.594 11.594M33.275 13.217l-11.594-11.594"></path>
</symbol>
<symbol id="icon-twitter" viewBox="0 0 32 32">
<path d="M0 16c0 8.837 7.163 16 16 16s16-7.163 16-16c0-8.837-7.163-16-16-16s-16 7.163-16 16zM22.1 11.5c0.7-0.1 1.3-0.2 1.9-0.5-0.4 0.7-1 1.3-1.7 1.7 0.2 4.7-3.2 9.8-9.3 9.8-1.8 0-3.5-0.6-5-1.5 1.7 0.2 3.5-0.3 4.7-1.2-1.5 0-2.7-1-3.1-2.3 0.5 0.1 1 0 1.5-0.1-1.5-0.4-2.6-1.8-2.6-3.3 0.5 0.2 1 0.4 1.5 0.4-1.4-1-1.9-2.9-1-4.4 1.7 2 4.1 3.3 6.8 3.4-0.5-2 1.1-4 3.2-4 0.9 0 1.8 0.4 2.4 1 0.8-0.2 1.5-0.4 2.1-0.8-0.2 0.8-0.7 1.4-1.4 1.8z"></path>
</symbol>
<symbol id="icon-youtube" viewBox="0 0 32 32">
<path d="M18.6 16l-4.2-2.4v4.8l4.2-2.4z"></path>
<path d="M0 16c0 8.837 7.163 16 16 16s16-7.163 16-16c0-8.837-7.163-16-16-16s-16 7.163-16 16zM22.2 10.7c0.7 0.2 1.2 0.7 1.4 1.4 0.4 1.3 0.4 3.9 0.4 3.9s0 2.6-0.3 3.9c-0.2 0.7-0.7 1.2-1.4 1.4-1.3 0.3-6.3 0.3-6.3 0.3s-5.1 0-6.3-0.3c-0.7-0.2-1.2-0.7-1.4-1.4-0.3-1.3-0.3-3.9-0.3-3.9s0-2.6 0.2-3.9c0.2-0.7 0.7-1.2 1.4-1.4 1.3-0.3 6.3-0.3 6.3-0.3s5.1 0 6.3 0.3z"></path>
</symbol>
</defs>
</svg>
