<svg width="84" height="54" viewBox="0 0 84 54" fill="none" xmlns="http://www.w3.org/2000/svg">
<g clip-path="url(#clip0_1_9)" filter="url(#filter0_d_1_9)">
<path d="M4 0H6.32086V27.4049H13.2508V0H15.5716V46H13.2508V29.7131H6.32086V46H4V0Z" fill="url(#paint0_linear_1_9)"/>
<path d="M32.7329 0L26.9798 29.7131V46H24.6589V29.7131L18.8731 0H20.9978L25.8357 24.7717L30.6408 0H32.7329Z" fill="url(#paint1_linear_1_9)"/>
<path d="M42.997 46H36.0344V0H42.9643C45.5467 0 47.5733 2.04806 47.5733 4.58375V41.3837C47.606 43.8869 45.5467 46 42.997 46ZM38.3553 2.30813V43.6919H42.9643C44.2065 43.6919 45.2852 42.6516 45.2852 41.3837V4.58375C45.2852 3.34841 44.2392 2.27562 42.9643 2.27562H38.3553V2.30813Z" fill="url(#paint2_linear_1_9)"/>
<path d="M62.806 46H60.4198L56.3338 29.7131H53.5553V46H51.2344V0H58.1643C60.7467 0 62.7733 2.04806 62.7733 4.58375V25.0968C62.7733 27.4049 60.9755 29.3555 58.6873 29.6155L62.806 46ZM53.5553 27.4049H58.1643C59.4064 27.4049 60.4852 26.3647 60.4852 25.0968V4.58375C60.4852 3.34841 59.4391 2.27562 58.1643 2.27562H53.5553V27.4049Z" fill="url(#paint3_linear_1_9)"/>
<path d="M69.8013 29.7131L68.1996 46H66.1075L70.7492 0H75.3583L79.9673 46H77.8753L76.2735 29.7131H69.8013ZM73.495 2.30813H72.5798L70.0628 27.4049H76.012L73.495 2.30813Z" fill="url(#paint4_linear_1_9)"/>
</g>
<defs>
<filter id="filter0_d_1_9" x="0" y="0" width="84" height="54" filterUnits="userSpaceOnUse" color-interpolation-filters="sRGB">
<feFlood flood-opacity="0" result="BackgroundImageFix"/>
<feColorMatrix in="SourceAlpha" type="matrix" values="0 0 0 0 0 0 0 0 0 0 0 0 0 0 0 0 0 0 127 0" result="hardAlpha"/>
<feOffset dy="4"/>
<feGaussianBlur stdDeviation="2"/>
<feComposite in2="hardAlpha" operator="out"/>
<feColorMatrix type="matrix" values="0 0 0 0 0 0 0 0 0 0 0 0 0 0 0 0 0 0 0.25 0"/>
<feBlend mode="normal" in2="BackgroundImageFix" result="effect1_dropShadow_1_9"/>
<feBlend mode="normal" in="SourceGraphic" in2="effect1_dropShadow_1_9" result="shape"/>
</filter>
<linearGradient id="paint0_linear_1_9" x1="9.78581" y1="0" x2="9.78581" y2="46" gradientUnits="userSpaceOnUse">
<stop stop-color="#E8D2B7"/>
<stop offset="1" stop-color="#8176AF"/>
</linearGradient>
<linearGradient id="paint1_linear_1_9" x1="25.803" y1="0" x2="25.803" y2="46" gradientUnits="userSpaceOnUse">
<stop stop-color="#E8D2B7"/>
<stop offset="1" stop-color="#8176AF"/>
</linearGradient>
<linearGradient id="paint2_linear_1_9" x1="41.8041" y1="0" x2="41.8041" y2="46" gradientUnits="userSpaceOnUse">
<stop stop-color="#E8D2B7"/>
<stop offset="1" stop-color="#8176AF"/>
</linearGradient>
<linearGradient id="paint3_linear_1_9" x1="57.0202" y1="0" x2="57.0202" y2="46" gradientUnits="userSpaceOnUse">
<stop stop-color="#E8D2B7"/>
<stop offset="1" stop-color="#8176AF"/>
</linearGradient>
<linearGradient id="paint4_linear_1_9" x1="73.0374" y1="0" x2="73.0374" y2="46" gradientUnits="userSpaceOnUse">
<stop stop-color="#E8D2B7"/>
<stop offset="1" stop-color="#8176AF"/>
</linearGradient>
<clipPath id="clip0_1_9">
<rect width="76" height="46" fill="white" transform="translate(4)"/>
</clipPath>
</defs>
</svg>
